<svg width="673.175px" height="182px" xmlns="http://www.w3.org/2000/svg" viewBox="-86.58749999999998 -16 673.175 182" style="background: none;" preserveAspectRatio="xMidYMid"><defs><filter id="editing-hover" x="-100%" y="-100%" width="300%" height="300%"><feFlood flood-color="#000000" result="flood"></feFlood><feComposite operator="in" in2="SourceAlpha" in="flood" result="shadow"></feComposite><feOffset dx="-1.3" dy="-0.6" in="SourceGraphic" result="offset-1"></feOffset><feOffset dx="1.3" dy="0.6" in="shadow" result="offset-2"></feOffset><feMerge><feMergeNode in="offset-2"></feMergeNode><feMergeNode in="offset-1"></feMergeNode></feMerge></filter></defs><g filter="url(#editing-hover)"><g transform="translate(7.904985427856445, 108.90000057220459)"><path d="M32.53-1.52L32.53-1.52L32.53-1.52Q31.46-0.61 29.22 0.08L29.22 0.08L29.22 0.08Q26.98 0.76 24.32 0.76L24.32 0.76L24.32 0.76Q21.13 0.76 18.85-0.19L18.85-0.19L18.85-0.19Q16.57-1.14 15.73-2.81L15.73-2.81L15.73-2.81Q14.90-4.56 13.68-7.33L13.68-7.33L13.68-7.33Q12.46-10.11 11.13-13.53L11.13-13.53L11.13-13.53Q9.80-16.95 8.40-20.79L8.40-20.79L8.40-20.79Q6.99-24.62 5.70-28.58L5.70-28.58L5.70-28.58Q4.41-32.53 3.27-36.33L3.27-36.33L3.27-36.33Q2.13-40.13 1.29-43.47L1.29-43.47L1.29-43.47Q2.36-44.54 4.37-45.41L4.37-45.41L4.37-45.41Q6.38-46.28 8.66-46.28L8.66-46.28L8.66-46.28Q11.48-46.28 13.26-45.11L13.26-45.11L13.26-45.11Q15.05-43.93 15.88-40.74L15.88-40.74L15.88-40.74Q17.94-33.29 20.03-26.49L20.03-26.49L20.03-26.49Q22.12-19.68 24.40-12.31L24.40-12.31L24.85-12.31L24.85-12.31Q26.90-19.46 29.07-27.89L29.07-27.89L29.07-27.89Q31.24-36.33 33.21-44.69L33.21-44.69L33.21-44.69Q34.58-45.37 36.14-45.83L36.14-45.83L36.14-45.83Q37.70-46.28 39.67-46.28L39.67-46.28L39.67-46.28Q42.48-46.28 44.46-45.03L44.46-45.03L44.46-45.03Q46.44-43.78 46.44-40.89L46.44-40.89L46.44-40.89Q46.44-39.22 45.64-36.02L45.64-36.02L45.64-36.02Q44.84-32.83 43.59-28.84L43.59-28.84L43.59-28.84Q42.33-24.85 40.77-20.52L40.77-20.52L40.77-20.52Q39.22-16.19 37.66-12.35L37.66-12.35L37.66-12.35Q36.10-8.51 34.73-5.59L34.73-5.59L34.73-5.59Q33.36-2.66 32.53-1.52ZM51.83-47.20L51.83-47.20L51.83-47.20Q51.83-50.08 53.77-52.06L53.77-52.06L53.77-52.06Q55.71-54.04 58.90-54.04L58.90-54.04L58.90-54.04Q62.09-54.04 64.03-52.06L64.03-52.06L64.03-52.06Q65.97-50.08 65.97-47.20L65.97-47.20L65.97-47.20Q65.97-44.31 64.03-42.33L64.03-42.33L64.03-42.33Q62.09-40.36 58.90-40.36L58.90-40.36L58.90-40.36Q55.71-40.36 53.77-42.33L53.77-42.33L53.77-42.33Q51.83-44.31 51.83-47.20ZM65.36-31.01L65.36-0.08L65.36-0.08Q64.52 0.08 62.89 0.34L62.89 0.34L62.89 0.34Q61.26 0.61 59.58 0.61L59.58 0.61L59.58 0.61Q57.91 0.61 56.58 0.38L56.58 0.38L56.58 0.38Q55.25 0.15 54.34-0.53L54.34-0.53L54.34-0.53Q53.43-1.22 52.93-2.39L52.93-2.39L52.93-2.39Q52.44-3.57 52.44-5.47L52.44-5.47L52.44-36.40L52.44-36.40Q53.28-36.56 54.91-36.82L54.91-36.82L54.91-36.82Q56.54-37.09 58.22-37.09L58.22-37.09L58.22-37.09Q59.89-37.09 61.22-36.86L61.22-36.86L61.22-36.86Q62.55-36.63 63.46-35.95L63.46-35.95L63.46-35.95Q64.37-35.26 64.87-34.09L64.87-34.09L64.87-34.09Q65.36-32.91 65.36-31.01L65.36-31.01ZM86.72-44.16L86.72-0.08L86.72-0.08Q85.88 0.08 84.25 0.34L84.25 0.34L84.25 0.34Q82.61 0.61 80.94 0.61L80.94 0.61L80.94 0.61Q79.27 0.61 77.94 0.38L77.94 0.38L77.94 0.38Q76.61 0.15 75.70-0.53L75.70-0.53L75.70-0.53Q74.78-1.22 74.29-2.39L74.29-2.39L74.29-2.39Q73.80-3.57 73.80-5.47L73.80-5.47L73.80-49.55L73.80-49.55Q74.63-49.70 76.27-49.97L76.27-49.97L76.27-49.97Q77.90-50.24 79.57-50.24L79.57-50.24L79.57-50.24Q81.24-50.24 82.57-50.01L82.57-50.01L82.57-50.01Q83.90-49.78 84.82-49.10L84.82-49.10L84.82-49.10Q85.73-48.41 86.22-47.23L86.22-47.23L86.22-47.23Q86.72-46.06 86.72-44.16L86.72-44.16ZM108.00-44.16L108.00-0.08L108.00-0.08Q107.16 0.08 105.53 0.34L105.53 0.34L105.53 0.34Q103.89 0.61 102.22 0.61L102.22 0.61L102.22 0.61Q100.55 0.61 99.22 0.38L99.22 0.38L99.22 0.38Q97.89 0.15 96.98-0.53L96.98-0.53L96.98-0.53Q96.06-1.22 95.57-2.39L95.57-2.39L95.57-2.39Q95.08-3.57 95.08-5.47L95.08-5.47L95.08-49.55L95.08-49.55Q95.91-49.70 97.55-49.97L97.55-49.97L97.55-49.97Q99.18-50.24 100.85-50.24L100.85-50.24L100.85-50.24Q102.52-50.24 103.85-50.01L103.85-50.01L103.85-50.01Q105.18-49.78 106.10-49.10L106.10-49.10L106.10-49.10Q107.01-48.41 107.50-47.23L107.50-47.23L107.50-47.23Q108.00-46.06 108.00-44.16L108.00-44.16ZM131.94-8.21L131.94-8.21L131.94-8.21Q133.23-8.21 134.79-8.47L134.79-8.47L134.79-8.47Q136.34-8.74 137.10-9.20L137.10-9.20L137.10-15.28L131.63-14.82L131.63-14.82Q129.50-14.67 128.14-13.91L128.14-13.91L128.14-13.91Q126.77-13.15 126.77-11.63L126.77-11.63L126.77-11.63Q126.77-10.11 127.95-9.16L127.95-9.16L127.95-9.16Q129.12-8.21 131.94-8.21ZM131.33-38.08L131.33-38.08L131.33-38.08Q135.43-38.08 138.81-37.24L138.81-37.24L138.81-37.24Q142.20-36.40 144.59-34.69L144.59-34.69L144.59-34.69Q146.98-32.98 148.28-30.36L148.28-30.36L148.28-30.36Q149.57-27.74 149.57-24.17L149.57-24.17L149.57-7.14L149.57-7.14Q149.57-5.17 148.47-3.91L148.47-3.91L148.47-3.91Q147.36-2.66 145.84-1.75L145.84-1.75L145.84-1.75Q140.90 1.22 131.94 1.22L131.94 1.22L131.94 1.22Q127.91 1.22 124.68 0.46L124.68 0.46L124.68 0.46Q121.45-0.30 119.13-1.82L119.13-1.82L119.13-1.82Q116.81-3.34 115.56-5.70L115.56-5.70L115.56-5.70Q114.30-8.06 114.30-11.17L114.30-11.17L114.30-11.17Q114.30-16.42 117.42-19.23L117.42-19.23L117.42-19.23Q120.54-22.04 127.07-22.72L127.07-22.72L137.03-23.79L137.03-24.32L137.03-24.32Q137.03-26.52 135.09-27.47L135.09-27.47L135.09-27.47Q133.15-28.42 129.50-28.42L129.50-28.42L129.50-28.42Q126.62-28.42 123.88-27.82L123.88-27.82L123.88-27.82Q121.14-27.21 118.94-26.30L118.94-26.30L118.94-26.30Q117.95-26.98 117.27-28.39L117.27-28.39L117.27-28.39Q116.58-29.79 116.58-31.31L116.58-31.31L116.58-31.31Q116.58-33.29 117.53-34.47L117.53-34.47L117.53-34.47Q118.48-35.64 120.46-36.48L120.46-36.48L120.46-36.48Q122.66-37.32 125.67-37.70L125.67-37.70L125.67-37.70Q128.67-38.08 131.33-38.08ZM175.48-38.08L175.48-38.08L175.48-38.08Q179.82-38.08 183.35-36.97L183.35-36.97L183.35-36.97Q186.88-35.87 189.32-34.12L189.32-34.12L189.32-34.12Q190.84-33.06 191.71-31.77L191.71-31.77L191.71-31.77Q192.58-30.48 192.58-28.42L192.58-28.42L192.58-1.82L192.58-1.82Q192.58 2.20 191.06 5.13L191.06 5.13L191.06 5.13Q189.54 8.06 186.92 9.99L186.92 9.99L186.92 9.99Q184.30 11.93 180.77 12.84L180.77 12.84L180.77 12.84Q177.23 13.76 173.20 13.76L173.20 13.76L173.20 13.76Q166.29 13.76 162.34 11.89L162.34 11.89L162.34 11.89Q158.38 10.03 158.38 5.85L158.38 5.85L158.38 5.85Q158.38 4.10 159.11 2.77L159.11 2.77L159.11 2.77Q159.83 1.44 160.74 0.76L160.74 0.76L160.74 0.76Q162.94 1.98 165.72 2.81L165.72 2.81L165.72 2.81Q168.49 3.65 171.46 3.65L171.46 3.65L171.46 3.65Q175.56 3.65 177.99 2.28L177.99 2.28L177.99 2.28Q180.42 0.91 180.42-2.13L180.42-2.13L180.42-3.34L180.42-3.34Q177.31-1.98 172.82-1.98L172.82-1.98L172.82-1.98Q169.40-1.98 166.33-3.00L166.33-3.00L166.33-3.00Q163.25-4.03 160.93-6.19L160.93-6.19L160.93-6.19Q158.61-8.36 157.21-11.78L157.21-11.78L157.21-11.78Q155.80-15.20 155.80-19.91L155.80-19.91L155.80-19.91Q155.80-24.55 157.28-27.97L157.28-27.97L157.28-27.97Q158.76-31.39 161.39-33.63L161.39-33.63L161.39-33.63Q164.01-35.87 167.62-36.97L167.62-36.97L167.62-36.97Q171.23-38.08 175.48-38.08ZM180.20-13.07L180.20-27.06L180.20-27.06Q179.66-27.36 178.64-27.66L178.64-27.66L178.64-27.66Q177.61-27.97 176.09-27.97L176.09-27.97L176.09-27.97Q172.37-27.97 170.51-25.88L170.51-25.88L170.51-25.88Q168.64-23.79 168.64-19.91L168.64-19.91L168.64-19.91Q168.64-15.50 170.51-13.57L170.51-13.57L170.51-13.57Q172.37-11.63 175.26-11.63L175.26-11.63L175.26-11.63Q178.37-11.63 180.20-13.07L180.20-13.07ZM200.26-47.20L200.26-47.20L200.26-47.20Q200.26-50.08 202.20-52.06L202.20-52.06L202.20-52.06Q204.14-54.04 207.33-54.04L207.33-54.04L207.33-54.04Q210.52-54.04 212.46-52.06L212.46-52.06L212.46-52.06Q214.40-50.08 214.40-47.20L214.40-47.20L214.40-47.20Q214.40-44.31 212.46-42.33L212.46-42.33L212.46-42.33Q210.52-40.36 207.33-40.36L207.33-40.36L207.33-40.36Q204.14-40.36 202.20-42.33L202.20-42.33L202.20-42.33Q200.26-44.31 200.26-47.20ZM213.79-31.01L213.79-0.08L213.79-0.08Q212.95 0.08 211.32 0.34L211.32 0.34L211.32 0.34Q209.68 0.61 208.01 0.61L208.01 0.61L208.01 0.61Q206.34 0.61 205.01 0.38L205.01 0.38L205.01 0.38Q203.68 0.15 202.77-0.53L202.77-0.53L202.77-0.53Q201.86-1.22 201.36-2.39L201.36-2.39L201.36-2.39Q200.87-3.57 200.87-5.47L200.87-5.47L200.87-36.40L200.87-36.40Q201.70-36.56 203.34-36.82L203.34-36.82L203.34-36.82Q204.97-37.09 206.64-37.09L206.64-37.09L206.64-37.09Q208.32-37.09 209.65-36.86L209.65-36.86L209.65-36.86Q210.98-36.63 211.89-35.95L211.89-35.95L211.89-35.95Q212.80-35.26 213.29-34.09L213.29-34.09L213.29-34.09Q213.79-32.91 213.79-31.01L213.79-31.01ZM260.22-18.47L260.22-18.47L260.22-18.47Q260.22-13.76 258.78-10.07L258.78-10.07L258.78-10.07Q257.34-6.38 254.71-3.88L254.71-3.88L254.71-3.88Q252.09-1.37 248.44-0.08L248.44-0.08L248.44-0.08Q244.80 1.22 240.31 1.22L240.31 1.22L240.31 1.22Q235.83 1.22 232.18-0.15L232.18-0.15L232.18-0.15Q228.53-1.52 225.91-4.07L225.91-4.07L225.91-4.07Q223.29-6.61 221.84-10.26L221.84-10.26L221.84-10.26Q220.40-13.91 220.40-18.47L220.40-18.47L220.40-18.47Q220.40-22.95 221.84-26.60L221.84-26.60L221.84-26.60Q223.29-30.25 225.91-32.79L225.91-32.79L225.91-32.79Q228.53-35.34 232.18-36.71L232.18-36.71L232.18-36.71Q235.83-38.08 240.31-38.08L240.31-38.08L240.31-38.08Q244.80-38.08 248.44-36.67L248.44-36.67L248.44-36.67Q252.09-35.26 254.71-32.72L254.71-32.72L254.71-32.72Q257.34-30.17 258.78-26.52L258.78-26.52L258.78-26.52Q260.22-22.88 260.22-18.47ZM233.62-18.47L233.62-18.47L233.62-18.47Q233.62-13.83 235.41-11.36L235.41-11.36L235.41-11.36Q237.20-8.89 240.39-8.89L240.39-8.89L240.39-8.89Q243.58-8.89 245.29-11.40L245.29-11.40L245.29-11.40Q247-13.91 247-18.47L247-18.47L247-18.47Q247-23.03 245.25-25.50L245.25-25.50L245.25-25.50Q243.50-27.97 240.31-27.97L240.31-27.97L240.31-27.97Q237.12-27.97 235.37-25.50L235.37-25.50L235.37-25.50Q233.62-23.03 233.62-18.47ZM310.31-1.52L310.31-1.52L310.31-1.52Q309.24-0.61 307.00 0.08L307.00 0.08L307.00 0.08Q304.76 0.76 302.10 0.76L302.10 0.76L302.10 0.76Q298.91 0.76 296.63-0.19L296.63-0.19L296.63-0.19Q294.35-1.14 293.51-2.81L293.51-2.81L293.51-2.81Q292.68-4.56 291.46-7.33L291.46-7.33L291.46-7.33Q290.24-10.11 288.91-13.53L288.91-13.53L288.91-13.53Q287.58-16.95 286.18-20.79L286.18-20.79L286.18-20.79Q284.77-24.62 283.48-28.58L283.48-28.58L283.48-28.58Q282.19-32.53 281.05-36.33L281.05-36.33L281.05-36.33Q279.91-40.13 279.07-43.47L279.07-43.47L279.07-43.47Q280.14-44.54 282.15-45.41L282.15-45.41L282.15-45.41Q284.16-46.28 286.44-46.28L286.44-46.28L286.44-46.28Q289.26-46.28 291.04-45.11L291.04-45.11L291.04-45.11Q292.83-43.93 293.66-40.74L293.66-40.74L293.66-40.74Q295.72-33.29 297.81-26.49L297.81-26.49L297.81-26.49Q299.90-19.68 302.18-12.31L302.18-12.31L302.63-12.31L302.63-12.31Q304.68-19.46 306.85-27.89L306.85-27.89L306.85-27.89Q309.02-36.33 310.99-44.69L310.99-44.69L310.99-44.69Q312.36-45.37 313.92-45.83L313.92-45.83L313.92-45.83Q315.48-46.28 317.45-46.28L317.45-46.28L317.45-46.28Q320.26-46.28 322.24-45.03L322.24-45.03L322.24-45.03Q324.22-43.78 324.22-40.89L324.22-40.89L324.22-40.89Q324.22-39.22 323.42-36.02L323.42-36.02L323.42-36.02Q322.62-32.83 321.37-28.84L321.37-28.84L321.37-28.84Q320.11-24.85 318.55-20.52L318.55-20.52L318.55-20.52Q317.00-16.19 315.44-12.35L315.44-12.35L315.44-12.35Q313.88-8.51 312.51-5.59L312.51-5.59L312.51-5.59Q311.14-2.66 310.31-1.52ZM349.45 1.22L349.45 1.22L349.45 1.22Q344.96 1.22 341.13-0.04L341.13-0.04L341.13-0.04Q337.29-1.29 334.44-3.80L334.44-3.80L334.44-3.80Q331.59-6.31 329.95-10.11L329.95-10.11L329.95-10.11Q328.32-13.91 328.32-19L328.32-19L328.32-19Q328.32-24.02 329.95-27.63L329.95-27.63L329.95-27.63Q331.59-31.24 334.25-33.55L334.25-33.55L334.25-33.55Q336.91-35.87 340.33-36.97L340.33-36.97L340.33-36.97Q343.75-38.08 347.32-38.08L347.32-38.08L347.32-38.08Q351.35-38.08 354.65-36.86L354.65-36.86L354.65-36.86Q357.96-35.64 360.35-33.52L360.35-33.52L360.35-33.52Q362.75-31.39 364.08-28.42L364.08-28.42L364.08-28.42Q365.41-25.46 365.41-21.96L365.41-21.96L365.41-21.96Q365.41-19.38 363.96-18.01L363.96-18.01L363.96-18.01Q362.52-16.64 359.94-16.26L359.94-16.26L341.16-13.45L341.16-13.45Q342.00-10.94 344.58-9.69L344.58-9.69L344.58-9.69Q347.17-8.44 350.51-8.44L350.51-8.44L350.51-8.44Q353.63-8.44 356.40-9.23L356.40-9.23L356.40-9.23Q359.18-10.03 360.92-11.10L360.92-11.10L360.92-11.10Q362.14-10.34 362.98-8.97L362.98-8.97L362.98-8.97Q363.81-7.60 363.81-6.08L363.81-6.08L363.81-6.08Q363.81-2.66 360.62-0.99L360.62-0.99L360.62-0.99Q358.19 0.30 355.15 0.76L355.15 0.76L355.15 0.76Q352.11 1.22 349.45 1.22ZM347.32-28.65L347.32-28.65L347.32-28.65Q345.50-28.65 344.17-28.04L344.17-28.04L344.17-28.04Q342.84-27.44 342.00-26.49L342.00-26.49L342.00-26.49Q341.16-25.54 340.75-24.36L340.75-24.36L340.75-24.36Q340.33-23.18 340.25-21.96L340.25-21.96L353.25-24.09L353.25-24.09Q353.02-25.61 351.58-27.13L351.58-27.13L351.58-27.13Q350.13-28.65 347.32-28.65ZM384.56-25.99L384.56-0.08L384.56-0.08Q383.80 0.15 382.17 0.38L382.17 0.38L382.17 0.38Q380.53 0.61 378.78 0.61L378.78 0.61L378.78 0.61Q377.11 0.61 375.78 0.38L375.78 0.38L375.78 0.38Q374.45 0.15 373.54-0.53L373.54-0.53L373.54-0.53Q372.63-1.22 372.13-2.39L372.13-2.39L372.13-2.39Q371.64-3.57 371.64-5.47L371.64-5.47L371.64-28.27L371.64-28.27Q371.64-30.02 372.29-31.27L372.29-31.27L372.29-31.27Q372.93-32.53 374.15-33.52L374.15-33.52L374.15-33.52Q375.36-34.50 377.15-35.30L377.15-35.30L377.15-35.30Q378.94-36.10 380.99-36.71L380.99-36.71L380.99-36.71Q383.04-37.32 385.24-37.66L385.24-37.66L385.24-37.66Q387.45-38 389.65-38L389.65-38L389.65-38Q393.30-38 395.43-36.59L395.43-36.59L395.43-36.59Q397.56-35.19 397.56-32.00L397.56-32.00L397.56-32.00Q397.56-30.93 397.25-29.91L397.25-29.91L397.25-29.91Q396.95-28.88 396.49-28.04L396.49-28.04L396.49-28.04Q394.90-28.04 393.22-27.89L393.22-27.89L393.22-27.89Q391.55-27.74 389.96-27.44L389.96-27.44L389.96-27.44Q388.36-27.13 386.95-26.79L386.95-26.79L386.95-26.79Q385.55-26.45 384.56-25.99L384.56-25.99ZM401.28-18.47L401.28-18.47L401.28-18.47Q401.28-23.48 402.80-27.17L402.80-27.17L402.80-27.17Q404.32-30.86 407.02-33.29L407.02-33.29L407.02-33.29Q409.72-35.72 413.33-36.90L413.33-36.90L413.33-36.90Q416.94-38.08 421.12-38.08L421.12-38.08L421.12-38.08Q422.64-38.08 424.08-37.81L424.08-37.81L424.08-37.81Q425.52-37.54 426.44-37.16L426.44-37.16L426.44-49.48L426.44-49.48Q427.20-49.70 428.87-49.97L428.87-49.97L428.87-49.97Q430.54-50.24 432.29-50.24L432.29-50.24L432.29-50.24Q433.96-50.24 435.29-50.01L435.29-50.01L435.29-50.01Q436.62-49.78 437.53-49.10L437.53-49.10L437.53-49.10Q438.44-48.41 438.90-47.23L438.90-47.23L438.90-47.23Q439.36-46.06 439.36-44.16L439.36-44.16L439.36-8.13L439.36-8.13Q439.36-4.56 436.01-2.43L436.01-2.43L436.01-2.43Q433.81-0.99 430.31 0.11L430.31 0.11L430.31 0.11Q426.82 1.22 422.26 1.22L422.26 1.22L422.26 1.22Q417.32 1.22 413.40-0.15L413.40-0.15L413.40-0.15Q409.49-1.52 406.79-4.10L406.79-4.10L406.79-4.10Q404.09-6.69 402.69-10.30L402.69-10.30L402.69-10.30Q401.28-13.91 401.28-18.47ZM422.86-27.97L422.86-27.97L422.86-27.97Q418.76-27.97 416.56-25.61L416.56-25.61L416.56-25.61Q414.35-23.26 414.35-18.47L414.35-18.47L414.35-18.47Q414.35-13.76 416.40-11.36L416.40-11.36L416.40-11.36Q418.46-8.97 422.33-8.97L422.33-8.97L422.33-8.97Q423.70-8.97 424.80-9.39L424.80-9.39L424.80-9.39Q425.90-9.80 426.51-10.34L426.51-10.34L426.51-27.06L426.51-27.06Q424.99-27.97 422.86-27.97ZM466.94 1.22L466.94 1.22L466.94 1.22Q462.46 1.22 458.62-0.04L458.62-0.04L458.62-0.04Q454.78-1.29 451.93-3.80L451.93-3.80L451.93-3.80Q449.08-6.31 447.45-10.11L447.45-10.11L447.45-10.11Q445.82-13.91 445.82-19L445.82-19L445.82-19Q445.82-24.02 447.45-27.63L447.45-27.63L447.45-27.63Q449.08-31.24 451.74-33.55L451.74-33.55L451.74-33.55Q454.40-35.87 457.82-36.97L457.82-36.97L457.82-36.97Q461.24-38.08 464.82-38.08L464.82-38.08L464.82-38.08Q468.84-38.08 472.15-36.86L472.15-36.86L472.15-36.86Q475.46-35.64 477.85-33.52L477.85-33.52L477.85-33.52Q480.24-31.39 481.57-28.42L481.57-28.42L481.57-28.42Q482.90-25.46 482.90-21.96L482.90-21.96L482.90-21.96Q482.90-19.38 481.46-18.01L481.46-18.01L481.46-18.01Q480.02-16.64 477.43-16.26L477.43-16.26L458.66-13.45L458.66-13.45Q459.50-10.94 462.08-9.69L462.08-9.69L462.08-9.69Q464.66-8.44 468.01-8.44L468.01-8.44L468.01-8.44Q471.12-8.44 473.90-9.23L473.90-9.23L473.90-9.23Q476.67-10.03 478.42-11.10L478.42-11.10L478.42-11.10Q479.64-10.34 480.47-8.97L480.47-8.97L480.47-8.97Q481.31-7.60 481.31-6.08L481.31-6.08L481.31-6.08Q481.31-2.66 478.12-0.99L478.12-0.99L478.12-0.99Q475.68 0.30 472.64 0.76L472.64 0.76L472.64 0.76Q469.60 1.22 466.94 1.22ZM464.82-28.65L464.82-28.65L464.82-28.65Q462.99-28.65 461.66-28.04L461.66-28.04L461.66-28.04Q460.33-27.44 459.50-26.49L459.50-26.49L459.50-26.49Q458.66-25.54 458.24-24.36L458.24-24.36L458.24-24.36Q457.82-23.18 457.75-21.96L457.75-21.96L470.74-24.09L470.74-24.09Q470.52-25.61 469.07-27.13L469.07-27.13L469.07-27.13Q467.63-28.65 464.82-28.65Z" fill="#ffd5af"></path></g></g><style>text {
  font-size: 64px;
  font-family: Arial Black;
  dominant-baseline: central;
  text-anchor: middle;
}</style></svg>